<?xml version="1.0" encoding="UTF-8"?>
<!DOCTYPE svg PUBLIC "-//W3C//DTD SVG 1.1//EN" "http://www.w3.org/Graphics/SVG/1.1/DTD/svg11.dtd">
<!-- Creator: CorelDRAW 2020 (64-Bit) -->
<svg xmlns="http://www.w3.org/2000/svg" xml:space="preserve" width="3508px" height="4961px" version="1.1" style="shape-rendering:geometricPrecision; text-rendering:geometricPrecision; image-rendering:optimizeQuality; fill-rule:evenodd; clip-rule:evenodd"
viewBox="0 0 3508 4960.81"
 xmlns:xlink="http://www.w3.org/1999/xlink"
 xmlns:xodm="http://www.corel.com/coreldraw/odm/2003">
 <defs>
  <style type="text/css">
   <![CDATA[
    .fil1 {fill:url(#id0)}
    .fil3 {fill:url(#id1)}
    .fil0 {fill:url(#id2)}
    .fil2 {fill:url(#id3)}
    .fil4 {fill:url(#id4)}
    .fil5 {fill:url(#id5)}
   ]]>
  </style>
  <linearGradient id="id0" gradientUnits="userSpaceOnUse" x1="960.13" y1="2235.75" x2="2128.36" y2="2592.89">
   <stop offset="0" style="stop-opacity:1; stop-color:#3E4095"/>
   <stop offset="1" style="stop-opacity:1; stop-color:#51A8B1"/>
  </linearGradient>
  <linearGradient id="id1" gradientUnits="userSpaceOnUse" xlink:href="#id0" x1="2134.03" y1="2456.62" x2="2803.48" y2="2614.47">
  </linearGradient>
  <linearGradient id="id2" gradientUnits="userSpaceOnUse" xlink:href="#id0" x1="1336.14" y1="2470.68" x2="2819.94" y2="2784.52">
  </linearGradient>
  <linearGradient id="id3" gradientUnits="userSpaceOnUse" xlink:href="#id0" x1="1127.03" y1="2439.26" x2="1885.71" y2="2643.67">
  </linearGradient>
  <linearGradient id="id4" gradientUnits="userSpaceOnUse" xlink:href="#id0" x1="1788.31" y1="2213.58" x2="2662.3" y2="1612.05">
  </linearGradient>
  <linearGradient id="id5" gradientUnits="userSpaceOnUse" xlink:href="#id0" x1="2651.22" y1="3073.2" x2="3192.24" y2="1888.96">
  </linearGradient>
 </defs>
 <g id="Layer_x0020_1">
  <metadata id="CorelCorpID_0Corel-Layer"/>
  <g id="_2682257518976">
   <path class="fil0" d="M1906.39 801.77c403.2,143.12 683.27,253.92 1055.69,446.28 141.58,72.33 146.19,72.33 212.36,227.76 235.46,550.93 278.55,1218.81 -92.33,1886.69 -404.73,375.49 -760.21,569.39 -1215.73,654.03 -56.94,10.77 -66.17,13.85 -118.49,-4.62 -521.69,-190.82 -832.55,-380.11 -1134.17,-649.41 -6.16,-9.24 -13.85,-20.01 -20.01,-30.78 44.63,0 89.26,-3.08 136.97,-6.16 269.3,232.38 550.92,401.66 1011.05,570.94 64.64,23.08 73.87,16.92 141.58,4.61 417.04,-80.02 740.21,-260.07 1111.08,-604.78 346.26,-621.72 306.24,-1243.43 87.72,-1755.89 -61.55,-144.65 -66.17,-146.19 -198.52,-213.9 -346.25,-178.52 -607.86,-281.62 -981.81,-415.51 -84.64,-29.23 -96.95,-35.39 -180.05,-3.07 -377.03,146.19 -615.56,255.45 -954.12,427.81 -93.87,47.71 -112.34,67.71 -160.05,161.58 -215.44,423.2 -256.99,901.8 -113.87,1357.31 -40.01,-12.31 -80.03,-26.16 -121.58,-44.63 -126.19,-464.74 -75.4,-947.96 144.66,-1378.85 52.32,-101.57 72.33,-123.11 172.36,-173.89 363.18,-186.21 618.63,-303.17 1024.9,-461.67 89.26,-33.86 103.11,-26.16 192.36,6.15z"/>
   <path class="fil1" d="M264.39 2351.44c-317.01,1143.4 1469.65,509.38 2051.35,-706.35 -56.94,-6.16 -113.88,-12.31 -170.82,-20.01 141.58,-89.25 283.16,-178.51 423.2,-267.77 10.77,155.43 20.01,312.4 29.24,467.83 -38.47,-38.47 -75.41,-78.49 -113.88,-116.96 -695.58,1911.31 -3070.1,1854.37 -2219.09,643.26z"/>
   <path class="fil2" d="M1720.19 2893.13c76.94,-76.94 153.89,-153.89 230.83,-230.83 75.41,150.81 150.82,301.62 226.22,453.97 -327.79,-7.69 -323.17,55.4 -457.05,-223.14zm-1144.94 -32.31c124.65,10.77 249.3,-1.54 370.87,-35.4 15.39,-35.39 30.78,-72.33 46.17,-107.72 61.56,3.08 121.57,4.62 181.59,6.16 141.58,-76.95 253.92,-155.43 341.64,-237 -7.7,-15.38 -16.93,-29.23 -24.63,-44.62 -121.57,-1.54 -243.14,-1.54 -364.72,-3.08 60.02,-113.88 121.58,-227.76 181.59,-341.64 -49.24,-106.18 -96.95,-212.36 -146.19,-320.09 -10.77,0 -23.09,0 -35.4,0 -183.13,361.64 -367.79,721.75 -550.92,1083.39zm658.65 -1083.39c103.1,227.76 207.75,455.52 310.85,683.27 106.19,-69.25 184.67,-144.65 240.07,-226.21 -72.33,-150.82 -144.65,-303.17 -216.98,-453.98 -110.8,-1.54 -223.14,-1.54 -333.94,-3.08z"/>
   <path class="fil3" d="M2126.46 2468.4c53.86,-80.02 107.72,-161.59 163.12,-243.15 26.16,40.01 53.86,80.02 80.02,118.5 113.88,-170.82 229.3,-341.64 343.18,-512.45 87.71,-69.26 166.2,-52.33 332.4,-50.79 3.08,335.48 4.61,670.96 6.15,1006.44 -43.09,149.27 -150.81,255.46 -323.16,320.09 -1.54,-261.61 -1.54,-521.69 -3.08,-783.3 -116.96,169.28 -235.45,338.56 -352.41,507.84 -83.1,-121.57 -164.66,-241.61 -246.22,-363.18zm-76.95 -566.32l-198.52 252.38c-64.63,-123.11 -127.72,-247.76 -190.82,-370.87 87.72,-1.54 176.97,-4.62 264.69,-6.16 75.41,29.24 124.65,67.72 124.65,124.65z"/>
   <path class="fil4" d="M1557.07 2548.42c589.39,-338.56 732.51,-627.87 1011.05,-1191.11 -49.24,32.32 -98.49,63.1 -147.73,93.88 -92.34,58.48 -184.67,116.95 -275.47,173.89 56.94,7.7 113.88,13.85 170.82,20.01 -173.89,364.72 -457.05,677.11 -758.67,903.33z"/>
   <path class="fil5" d="M3045.18 1780.51c0,0 -130.81,280.08 -320.09,543.23 1.54,253.92 3.08,529.38 3.08,783.3 172.35,-64.63 280.07,-170.82 323.16,-320.09 -1.54,-335.48 -3.07,-670.96 -6.15,-1006.44z"/>
  </g>
 </g>
</svg>
